<svg xmlns="http://www.w3.org/2000/svg" xmlns:xlink="http://www.w3.org/1999/xlink" width="696.692" height="626.439" viewBox="0 0 696.692 626.439"><defs><linearGradient id="a" x1="0.5" y1="0.494" x2="0.5" y2="1.933" gradientUnits="objectBoundingBox"><stop offset="0.062" stop-color="#e38204"/><stop offset="1" stop-color="#e35802"/></linearGradient><linearGradient id="b" x1="0.5" y1="0.256" x2="0.5" y2="0.954" xlink:href="#a"/><linearGradient id="c" x1="0.5" y1="0.846" x2="0.5" y2="3.761" xlink:href="#a"/><linearGradient id="d" x1="0" y1="0.5" x2="1" y2="0.5" xlink:href="#a"/><linearGradient id="e" x1="0" y1="0.5" x2="1" y2="0.5" xlink:href="#a"/><linearGradient id="f" x1="0.331" y1="0.11" x2="0.6" y2="0.574" gradientUnits="objectBoundingBox"><stop offset="0" stop-color="#28c5f4"/><stop offset="1" stop-color="#0077ec"/></linearGradient><linearGradient id="g" x1="0.058" y1="0.057" x2="0.692" y2="0.694" gradientUnits="objectBoundingBox"><stop offset="0" stop-color="#008bec"/><stop offset="1" stop-color="#0077ec"/></linearGradient><linearGradient id="h" x1="0.803" y1="0.201" x2="0.4" y2="0.695" xlink:href="#f"/><linearGradient id="i" x1="0" y1="0.5" x2="1" y2="0.5" xlink:href="#g"/><linearGradient id="j" x1="0" y1="0.5" x2="1" y2="0.5" xlink:href="#a"/></defs><g transform="translate(-95 -87)"><g transform="translate(95 87)"><path d="M154.65,178.6a5.72,5.72,0,1,0,6.429-4.91A5.72,5.72,0,0,0,154.65,178.6Z" transform="translate(30.593 13.609)" fill="#2b1e65"/><path d="M143.649,165.044a11.448,11.448,0,1,0,12.869-9.822A11.449,11.449,0,0,0,143.649,165.044Z" transform="translate(18.03 -7.437)" fill="#2b1e65"/><circle cx="55.715" cy="55.715" r="55.715" transform="translate(0 69.675) rotate(-38.702)" fill="#2b1e65"/><circle cx="33.002" cy="33.002" r="33.002" transform="translate(93.397 148.354) rotate(-89.211)" fill="#2b1e65"/><g transform="translate(41.642 50.182)"><path d="M175.751,154.93a16.893,16.893,0,0,0-3.931-4.3,17.38,17.38,0,0,0-20.836-.291l0,.006L118.14,124.554,99.913,110.245a3.554,3.554,0,0,0-4.985.592l-3.669,4.671.006,0-3.216,4.1a2.982,2.982,0,0,0,.508,4.194l.417.325a2.986,2.986,0,0,0,4.194-.5l3.216-4.094,2.961,2.325-3.218,4.1a2.989,2.989,0,0,0,.511,4.194l.541.423a2.986,2.986,0,0,0,4.194-.5l3.218-4.1,2.987,2.335-3.109,3.97a3.091,3.091,0,0,0,.165,4.121,2.982,2.982,0,0,0,4.431-.3l3.216-4.1,32.839,25.795a17.394,17.394,0,0,0,30.26,16.691A17.533,17.533,0,0,0,175.751,154.93Zm-8.237,19.159a4.457,4.457,0,1,1,3.115-7.955,4.386,4.386,0,0,1,1.485,2.139l.009.006a4.464,4.464,0,0,1-4.609,5.809Z" transform="translate(-87.412 -109.486)" fill="#fff"/><path d="M145.373,150.322a17.392,17.392,0,0,1-31.559-10.08c2.805,5.728,7.215,10.781,14.1,11.852a12.173,12.173,0,0,0,9.589-2.179,4.464,4.464,0,0,0,4.609-5.809l-.009-.006a40.122,40.122,0,0,0,3.636-13.343A17.533,17.533,0,0,1,145.373,150.322Z" transform="translate(-57.405 -85.311)" fill="#fff"/></g></g><circle cx="145.597" cy="145.597" r="145.597" transform="matrix(0.23, -0.973, 0.973, 0.23, 206.537, 577.161)" fill="#dfc9e1" opacity="0.36"/><circle cx="110.654" cy="110.654" r="110.654" transform="translate(323.452 217.318)" fill="#dfc9e1" opacity="0.36"/><circle cx="110.654" cy="110.654" r="110.654" transform="translate(514.339 504.296) rotate(-80.69)" fill="#dfc9e1" opacity="0.36"/><path d="M593.648,0H0" transform="translate(198.044 712.348)" fill="#f4ecf4" stroke="#f4ecf4" stroke-width="2.181"/><g transform="translate(387.636 145.655)" opacity="0.36"><g transform="translate(0)"><path d="M290.246,113.56a18.942,18.942,0,0,0-6.288,1.769,19.5,19.5,0,0,0-10.811,20.733l0,.009-42.43,19.887L207.182,167a3.987,3.987,0,0,0-1.923,5.294l2.827,6.034.009,0,2.481,5.292a3.345,3.345,0,0,0,4.459,1.6l.536-.25a3.351,3.351,0,0,0,1.62-4.455l-2.481-5.292,3.827-1.793,2.478,5.292a3.353,3.353,0,0,0,4.461,1.6l.7-.327a3.351,3.351,0,0,0,1.62-4.453l-2.481-5.292,3.848-1.814,2.41,5.117a3.467,3.467,0,0,0,4.211,1.917,3.345,3.345,0,0,0,1.938-4.592l-2.481-5.292,42.428-19.885a19.518,19.518,0,0,0,32-21.9A19.674,19.674,0,0,0,290.246,113.56Zm15.042,17.926a5,5,0,1,1-6.4-7.138,4.934,4.934,0,0,1,2.9-.408l.009,0a5.008,5.008,0,0,1,3.5,7.551Z" transform="translate(-204.887 -113.451)" fill="#dfc9e1"/><path d="M267.779,123.807a19.517,19.517,0,0,1-26.036,26.538c7.158.081,14.448-1.788,19-8.151a13.654,13.654,0,0,0,2.656-10.709,5.008,5.008,0,0,0-3.5-7.551l-.009,0c-3.393-4.658-8.388-8.335-11.538-10.38A19.674,19.674,0,0,1,267.779,123.807Z" transform="translate(-162.996 -113.451)" fill="#dfc9e1"/></g></g><g transform="translate(603.791 209.332)" opacity="0.36"><path d="M360.681,144.378a9.826,9.826,0,0,0-3.235-1.03,10.139,10.139,0,0,0-10.621,5.908v.006l-24.1-3.5-13.375-1.936A2.072,2.072,0,0,0,307,145.574L306.5,149h.006l-.436,3.006a1.735,1.735,0,0,0,1.476,1.972l.3.045a1.742,1.742,0,0,0,1.976-1.472l.436-3,2.173.314L312,152.868a1.743,1.743,0,0,0,1.476,1.972l.4.058a1.741,1.741,0,0,0,1.976-1.47l.438-3.006,2.188.312-.417,2.91a1.8,1.8,0,0,0,1.28,2.036,1.737,1.737,0,0,0,2.154-1.44l.436-3,24.1,3.5a10.144,10.144,0,0,0,20.15-.355A10.221,10.221,0,0,0,360.681,144.378Zm1.4,12.08a2.6,2.6,0,1,1,.637-4.277h0a2.6,2.6,0,0,1-.641,4.277Z" transform="translate(-306.055 -143.254)" fill="#dfc9e1"/><g transform="translate(41.237 1.123)"><path d="M344.243,153.781a10.144,10.144,0,0,1-18.887,4.074c3.085,2.081,6.782,3.354,10.576,1.893a7.1,7.1,0,0,0,4.215-3.889,2.6,2.6,0,0,0,.641-4.277h0a23.428,23.428,0,0,0-2.04-7.8A10.221,10.221,0,0,1,344.243,153.781Z" transform="translate(-325.356 -143.78)" fill="#dfc9e1"/></g></g><g transform="translate(373.416 191.38)"><rect width="330.523" height="298.29" rx="8.662" transform="translate(0 69.895)" fill="#dfc9e1"/><g transform="translate(52.464 164.288)"><rect width="225.595" height="32.353" fill="#fff"/><rect width="225.595" height="32.353" transform="translate(0 57.419)" fill="#fff"/><rect width="225.595" height="32.353" transform="translate(0 120.091)" fill="#781d83" opacity="0.5"/><g transform="translate(24.555 69.879)"><path d="M241.712,248.167A3.717,3.717,0,1,1,238,244.451,3.717,3.717,0,0,1,241.712,248.167Z" transform="translate(-234.279 -244.451)" fill="#1d262d"/><path d="M259.3,248.167a3.717,3.717,0,1,1-3.718-3.716A3.718,3.718,0,0,1,259.3,248.167Z" transform="translate(-214.294 -244.451)" fill="#1d262d"/><path d="M276.876,248.167a3.716,3.716,0,1,1-3.716-3.716A3.716,3.716,0,0,1,276.876,248.167Z" transform="translate(-194.31 -244.451)" fill="#1d262d"/><path d="M250.5,248.167a3.716,3.716,0,1,1-3.716-3.716A3.716,3.716,0,0,1,250.5,248.167Z" transform="translate(-224.286 -244.451)" fill="#1d262d"/><path d="M268.085,248.167a3.716,3.716,0,1,1-3.716-3.716A3.717,3.717,0,0,1,268.085,248.167Z" transform="translate(-204.302 -244.451)" fill="#1d262d"/><path d="M303.25,248.167a3.716,3.716,0,1,1-3.716-3.716A3.716,3.716,0,0,1,303.25,248.167Z" transform="translate(-164.334 -244.451)" fill="#1d262d"/><path d="M285.669,248.167a3.717,3.717,0,1,1-3.718-3.716A3.718,3.718,0,0,1,285.669,248.167Z" transform="translate(-184.318 -244.451)" fill="#1d262d"/><path d="M294.459,248.167a3.716,3.716,0,1,1-3.716-3.716A3.717,3.717,0,0,1,294.459,248.167Z" transform="translate(-174.325 -244.451)" fill="#1d262d"/><path d="M320.834,248.167a3.717,3.717,0,1,1-3.716-3.716A3.717,3.717,0,0,1,320.834,248.167Z" transform="translate(-144.35 -244.451)" fill="#1d262d"/><path d="M312.043,248.167a3.717,3.717,0,1,1-3.715-3.716A3.717,3.717,0,0,1,312.043,248.167Z" transform="translate(-154.342 -244.451)" fill="#1d262d"/></g><g transform="translate(62.122 14.208)"><path d="M259.3,222.113a3.717,3.717,0,1,1-3.718-3.718A3.717,3.717,0,0,1,259.3,222.113Z" transform="translate(-251.862 -218.395)" fill="#1d262d"/><path d="M276.876,222.113a3.716,3.716,0,1,1-3.716-3.718A3.715,3.715,0,0,1,276.876,222.113Z" transform="translate(-231.877 -218.395)" fill="#1d262d"/><path d="M268.085,222.113a3.716,3.716,0,1,1-3.716-3.718A3.717,3.717,0,0,1,268.085,222.113Z" transform="translate(-241.869 -218.395)" fill="#1d262d"/><path d="M303.25,222.113a3.716,3.716,0,1,1-3.716-3.718A3.715,3.715,0,0,1,303.25,222.113Z" transform="translate(-201.901 -218.395)" fill="#1d262d"/><path d="M285.669,222.113a3.717,3.717,0,1,1-3.718-3.718A3.717,3.717,0,0,1,285.669,222.113Z" transform="translate(-221.886 -218.395)" fill="#1d262d"/><path d="M294.459,222.113a3.716,3.716,0,1,1-3.716-3.718A3.717,3.717,0,0,1,294.459,222.113Z" transform="translate(-211.893 -218.395)" fill="#1d262d"/></g></g><g transform="translate(90.404)"><circle cx="53.192" cy="53.192" r="53.192" transform="matrix(0.634, -0.773, 0.773, 0.634, 0, 82.27)" fill="#652079"/><g transform="translate(54.472 54.472)"><line x1="40.773" y2="40.773" fill="none" stroke="#fff" stroke-miterlimit="10" stroke-width="2.273"/><line x1="40.773" y1="40.773" fill="none" stroke="#fff" stroke-miterlimit="10" stroke-width="2.273"/></g></g></g><g transform="translate(248.053 297.688)"><path d="M153.96,339.8l55.113-2.29,2.414-94.29-6.848-19.095-22.829-7.861-15.979-2.955a19.234,19.234,0,0,0-15.618,19.567l5.976,66.732Z" transform="translate(-127.459 -151.99)" fill="#f7d6b2"/><path d="M162.313,206.406v18.947s4,2.391,13.373,2.391c5.051,0,6.185.872,6.185.872V218.35Z" transform="translate(-113.692 -159.833)" fill="#f7d6b2"/><path d="M161.31,214.613c.043.686.066,1.329.111,1.949,0,.222-.023.442-.023.686-.464,11.247,6.754,23.291,17.623,24.93,0,0,.09.021.244.045.09,0,.222.021.376.021,2.325.288,10.738.974,13.815-2.412,3.609-3.987,6.818-11.29,6.818-16.283s-.906-6.173-.906-8.185c0-1.573.844-6.491.861-8.625.071-10.038-6.683-20-18.682-20C163.545,186.739,160.8,202.526,161.31,214.613Z" transform="translate(-114.895 -182.186)" fill="#f7d6b2"/><path d="M171.463,214.973" transform="translate(-103.292 -150.096)" fill="#6ebaad"/><g transform="translate(0 64.686)"><path d="M142.4,290.671c5.91,2.457,23.37-30.549,29.739-45.108s8.788-27.169,1.573-30.171-14.454,7.6-20.287,22.385S136.492,288.212,142.4,290.671Z" transform="translate(-138.236 -214.884)" fill="#f7d6b2"/><g transform="translate(0 63.664)"><path d="M145.963,322.474c5.675.09,7.895-41.648,8.083-53.44s-.487-24.252-6.85-24.353-7.431,12.332-7.617,24.124S140.288,322.385,145.963,322.474Z" transform="translate(-139.557 -244.681)" fill="#f7d6b2"/><path d="M146.093,276.045c-6.679-.6-6.4,11.3-6.162,15.353.4,6.6,7.234,13.046,9.8,12.931s.547-15,1.109-15.533.867,7.555,3.267,7.194,1.551-10.166-.273-13.92S150.278,276.423,146.093,276.045Z" transform="translate(-139.238 -209.058)" fill="#f7d6b2"/></g></g><path d="M180.984,227.794c-1.011,4.983-4.115,11.914-8.286,19.569-4.585,8.395-8.719,15.6-11.409,20.236-1.66,2.852-2.78,4.713-3.124,5.29-.071.126-.107.2-.107.2l-15.941-6.517s9.459-39.356,24.263-51.451a14.677,14.677,0,0,1,1.968-.848C176.706,215.862,182.736,219.182,180.984,227.794Z" transform="translate(-136.647 -150.892)" fill="url(#a)"/><path d="M171.769,270.771c-5.493,2.081-8.553,10.8-6.7,18.911a120.783,120.783,0,0,0,8.651,24.43c11.414,24.195,20.244,56.545,28.34,56.429s10.779-20.182,2.846-46.321c-7.168-23.624-13.736-54.607-19.7-56.145C182.194,267.294,176.579,268.948,171.769,270.771Z" transform="translate(-111.173 -89.966)" fill="#f7d6b2"/><g transform="translate(80.126 275.106)"><path d="M190.49,313.674c-21.994-6.734-12.04,99.676-4.658,118.576s10.155-31.525,11.484-64.145S199.143,316.325,190.49,313.674Z" transform="translate(-177.059 -313.368)" fill="#f7d6b2"/></g><path d="M178.487,357.932c.25.333,1.835,29.367,1.835,29.367s14.016,1,14.016,0,1.085-26.2,1.085-26.2Z" transform="translate(-95.309 12.389)" fill="#f7d6b2"/><path d="M155.318,357.932c.25.333,1.835,29.367,1.835,29.367s14.016,1,14.016,0,1.085-26.2,1.085-26.2Z" transform="translate(-121.643 12.389)" fill="#f7d6b2"/><path d="M160.845,269.509c-5.794.976-10.484,8.939-10.234,17.255a120.61,120.61,0,0,0,3.752,25.643c6.508,25.947,8.9,59.395,16.866,60.85s14.484-17.71,11.768-44.89c-2.455-24.566-2.893-56.235-8.442-58.9C171.744,268.118,165.913,268.653,160.845,269.509Z" transform="translate(-127.003 -89.09)" fill="#f7d6b2"/><g transform="translate(32.136 277.28)"><path d="M169.734,314.8c-21.629-7.833-15.591,98.982-9.168,118.228s10.283-31.01,13.249-63.521S178.242,317.876,169.734,314.8Z" transform="translate(-154.598 -314.385)" fill="#f7d6b2"/></g><path d="M214.771,277s19.567,82.4,19.122,99.755-3.771,108.075-3.771,108.075-15.612.068-15.625,0c-12.046-65.5-7.068-104.488-8.4-111.829s-16.018-38.713-16.018-38.713-.669,36.042-.669,46.054-9.01,103.821-9.01,103.821l-16.157.333s-5.2-64.106-5.2-77.122,3.171-33.373,3-36.042-25.363-68.08-8.677-93.444C175.306,244.537,214.771,277,214.771,277Z" transform="translate(-130.349 -95.701)" fill="#652079"/><path d="M220.394,243.527a18.051,18.051,0,0,1-.378,4.151c-.162.778-.361,1.679-.669,2.782-.831,3.141-2.312,7.835-4.929,15.74-7.076,21.34-.776,67.392-.686,67.843,0,0-64.23,1.553-64.087-.308,1.03-12.689,10.832-23.972,2.474-68.582-6.861-36.683,2.256-50.637,10.307-51.594,15.868-1.9,43.868,7.566,47.695,11.121S220.268,235.619,220.394,243.527Z" transform="translate(-128.091 -151.985)" fill="url(#b)"/><path d="M252.322,220.818c-.865-6.288-37.856-4.653-53.5-2.795s-27.645,6.121-26.59,13.8,13.757,8.546,29.327,6.117S253.185,227.108,252.322,220.818Z" transform="translate(-102.497 -148.531)" fill="#eed7ba"/><path d="M225.851,234.086s-16.99,6.536-30.111,10.147c-8.031,2.209-15.236,1.372-16.826-3.4-.036-.126-.252-.09-.378-.143-8.179-3.213-10.749-16.881-2.716-20.439,4.641-2.058,14.554-1.775,23.186-2.416,16.813-1.25,22.908-1.481,22.908-1.481l3.72,16.736Z" transform="translate(-103.887 -148.52)" fill="url(#c)"/><path d="M221.587,202.931a19.68,19.68,0,0,1-2.882,8.792c-5.589,9.6-8.792,18.65-8.632,29.927.19,13.507,8.3,29.609-.079,42.108-12.2,18.2-43.529,16.9-57.164,1.7-9.115-10.162-11.211-26.609-.515-36.634,4.617-4.329,8.939-8.461,11.606-14.277,7.442-16.227,6.54-42.3,27.218-48.919C202.7,181.931,222.4,188.394,221.587,202.931Z" transform="translate(-133.243 -184.608)" fill="#1d262d"/><path d="M194.066,370.549s1.479,4.292,10.409,9.878,11.273,4.369,11.473,6.459-37.125.37-37.125.37l.583-17.182S194.062,370.1,194.066,370.549Z" transform="translate(-94.926 26.189)" fill="#652079"/><path d="M170.6,370.076s1.694,3.607,7.709,9.431c5.314,5.145,10.008,4.045,9.578,5.884-.412,1.767-31.97.622-31.97.622V370.076Z" transform="translate(-120.962 26.192)" fill="#652079"/><g transform="translate(81.387 7.776)"><path d="M184.212,193.775c-4.027,3.931,23.8,34.647,31.97,43.016s17.411,16.6,21.926,12.189-3.491-13.845-11.659-22.212S188.239,189.843,184.212,193.775Z" transform="translate(-170.639 -182.385)" fill="#eed7ba"/><path d="M177.844,188.913c-1.566,1.56,6.741,9.157,8.914,11.629.329.374.526.637.517.737s-.145.1-.35.045c-1.282-.35-5.861-3.275-7.168-1.667-1.438,1.769,4.889,7.76,8.828,9.7.218.107.457.252.66.333,3.844,1.534,6.376,1.769,9.7-.748,5.3-4.017-2.844-12.559-5.726-15.373a20.74,20.74,0,0,0-9.076-4.784C181.243,188.05,178.716,188.046,177.844,188.913Z" transform="translate(-177.649 -188.247)" fill="#eed7ba"/></g><path d="M152.824,245.272l-.073.162c-1.66,2.852-2.78,4.713-3.124,5.29l1.7-16.952A88.231,88.231,0,0,0,152.824,245.272Z" transform="translate(-128.11 -128.728)" opacity="0.5" fill="url(#d)" style="mix-blend-mode:multiply;isolation:isolate"/><path d="M189.385,229.4c-.162.778-.361,1.679-.669,2.782-4.025,2.419-12.121.547-12.121.547l12.717-3.31S189.329,229.4,189.385,229.4Z" transform="translate(-97.46 -133.703)" opacity="0.5" fill="url(#e)" style="mix-blend-mode:multiply;isolation:isolate"/></g><g transform="translate(639.201 508.901)"><g transform="translate(0 13.989)"><path d="M388.02,431.06a85.643,85.643,0,0,0-.216,24.186,37.229,37.229,0,0,1,.288,6.788c-.132,2.361-.609,5.029-2.6,6.29-3.045,1.929-6.9-.848-9.053-3.731-9.4-12.546-9.959-29.117-17.971-42.368-1.235-2.038-2.59-4.055-3.989-6.081l2.348-8.974-4.889,5.312c-5.591-8.07-10.993-16.422-10.935-26.468l7.168.609s-3.775-1.549-7.108-2.852c.274-6.767,1.13-13.753-1.248-20.122-1.728-4.617-5.089-8.313-8.262-12.147l4.7-6.989s-4.457,1.4-8.339,2.2c-.3-.447-.581-.9-.855-1.365-4.235-7.217-4.692-15.5-4.333-23.646A111.086,111.086,0,0,1,324,307.988c1.724.1,3.19.167,3.19.167l-2.538-3.489a46.944,46.944,0,0,1,2.19-7.128c.641-1.6,2.989-7.241,5.038-7.472,5.916-.667,10.854,4.741,12.965,10.3,2,5.269,2.916,10.538,5.175,15.469l-2.874,3.047,4.906.652c.237.37.483.729.748,1.088,6.036,8.254,16.685,14.685,22.872,22.761-4.726,1.286-9.209,2.852-9.209,2.852l13.052,4.074c1.536,4.489,1.429,9.593-1.37,15.71-.906,1.985-1.908,3.884-2.808,5.8l-3.468-2.344,2.414,4.786a20.181,20.181,0,0,0-1.615,8.063c.2,8.647,5.606,15.885,10,23.381-.754,2.38-1.41,4.472-1.41,4.472l3.675-.359a35.64,35.64,0,0,1,2.425,6A34.909,34.909,0,0,1,388.02,431.06Z" transform="translate(-322.628 -290.011)" fill="url(#f)"/><g transform="translate(12.118 16.527)"><path d="M369.934,435.56c-1.929-20.776-7.621-29.878-12.644-37.907-2.406-3.848-4.679-7.484-6.094-11.92-1.6-5.027-1.788-11.217-1.985-17.768-.323-10.79-.656-21.945-7.3-29.156-11.339-12.294-13.6-40.757-13.606-41.027l1.979-.032-.989.015.989-.019c.006.265,2.122,27.844,13.08,39.723,7.149,7.751,7.5,19.285,7.828,30.436.192,6.41.374,12.463,1.893,17.227,1.337,4.2,3.446,7.57,5.886,11.471,4.884,7.811,10.965,17.531,12.935,38.773Z" transform="translate(-328.3 -297.746)" fill="url(#g)" style="mix-blend-mode:screen;isolation:isolate"/></g></g><g transform="translate(38.17)"><path d="M376.614,456.763c3.782-1.887,6.9-4.284,8.653-6.891,5.927-8.828,5.273-20.689,6.938-30.758,1.981-11.98,7.328-23.812,16.808-31.406,7.688-6.158,12.849-13,14.46-23.037,1.585-9.867.551-19.913,1.622-29.822a155.142,155.142,0,0,1,6.284-30.564c2.681-8.448,5.519-22.56-8.491-20.646a22.626,22.626,0,0,0-14.311,8.025c-9.3,11.405-8.5,27.573-15.435,40.178-3.5,6.365-8.9,11.1-14.048,16.1-4.617,4.5-9.493,9.884-10.465,16.509-.566,3.85-.113,7.828-1.008,11.617-1.252,5.286-4.91,9.412-8.232,13.525a78.647,78.647,0,0,0-8.76,14.2c-6.453,12.642-12.811,28.786-8.974,43.042,1.12,4.16,3.169,8.237,6.613,10.824C355.958,463.44,368.683,460.72,376.614,456.763Z" transform="translate(-340.493 -283.463)" fill="url(#h)"/><path d="M360.111,318.587" transform="translate(-318.196 -243.542)" fill="none" stroke="#fff" stroke-linecap="round" stroke-miterlimit="10" stroke-width="1.2"/><path d="M367.67,332.592a1.281,1.281,0,0,1,1.449,1.09l3.69,26.3,23.473-46.165a1.281,1.281,0,0,1,2.284,1.162L381.4,348.734,405.288,332a1.282,1.282,0,0,1,1.47,2.1l-27.128,19a1.253,1.253,0,0,1-.555.2l-22.4,44.046,16.4-7.437a1.282,1.282,0,0,1,1.06,2.335L355.8,400.565a1.278,1.278,0,0,1-.8.085l-4.263,8.38a1.277,1.277,0,0,1-1.722.562,1.305,1.305,0,0,1-.378-.288,1.284,1.284,0,0,1-.184-1.434l22.479-44.208a1.281,1.281,0,0,1-.291-.641l-4.066-28.983A1.282,1.282,0,0,1,367.67,332.592Z" transform="translate(-331.602 -249.764)" fill="url(#i)" style="mix-blend-mode:screen;isolation:isolate"/></g><path d="M374.993,325.225c5.384-8.66,10.39-11.9,10.463-11.948a1.036,1.036,0,0,0,.432-.579c5.91-4.735,21.733-18.4,13.762-23.165-7.895-4.713-13.61,14.67-15.469,22.067-.942.624-5.732,4.077-10.862,12.294,1.942-7.933,5.694-26.932-3.211-25.951-9.986,1.1-.538,23.562,1.684,28.538a78.28,78.28,0,0,0-5.312,11.67c-.363,1-.72,2.051-1.07,3.141,0-8.751-.989-26.049-9.01-23.231-9.26,3.254,4.158,22.167,7.854,27.1a124.8,124.8,0,0,0-3.773,20.65c-1.9-8.061-7.115-26.361-14.55-21.5-8.324,5.435,9.779,20.928,14.266,24.586a182.15,182.15,0,0,0-.519,19.266c-2.936-7.442-10.993-25.568-17.757-19.543-7.467,6.651,13.016,19.394,17.843,22.244.2,5.4.6,11.164,1.276,17.311-5.145-5.869-19.159-20.633-23.528-12.576-4.624,8.523,17.411,13.514,23.778,14.762.731,6.241,1.714,12.852,3.01,19.877-3.948-4.643-19.842-22.438-24.549-13.76C334.84,425.52,360,430.59,364.526,431.422q1.269,6.743,2.912,13.969a1.049,1.049,0,0,0,1.258.788.865.865,0,0,0,.169-.056,1.048,1.048,0,0,0,.62-1.2q-1.654-7.233-2.908-13.952c5.143-.513,30.329-3.5,25.692-12.542-4.512-8.8-21.654,7.367-25.883,11.557-1.278-6.908-2.25-13.409-2.976-19.545,4.886-.481,30.48-3.446,25.81-12.552-4.527-8.826-21.77,7.476-25.921,11.6-.778-6.779-1.243-13.1-1.451-18.969,5.463-.278,30.284-2.06,26.139-11.238-4-8.86-21.387,5.767-26.177,10.036a181.8,181.8,0,0,1,.474-20.27c5.491.273,30.32.989,27.122-8.553-3.079-9.192-21.753,3.512-27.011,7.32a124.549,124.549,0,0,1,3.9-22.15c5.852.286,30.1.917,26.953-8.523-2.972-8.907-20.6,2.705-26.487,6.9.521-1.754,1.06-3.4,1.611-4.933a75.157,75.157,0,0,1,5.41-11.845c5.418.192,30.376.575,27.034-8.942C397.8,309.722,381.3,320.648,374.993,325.225Z" transform="translate(-306.435 -277.394)" fill="#1d262d"/><g transform="translate(20.507 135.723)"><path d="M345.94,413.42H392.6a5.787,5.787,0,0,0,5.767-5.3l5.95-61.134H334.223l5.95,61.134A5.787,5.787,0,0,0,345.94,413.42Z" transform="translate(-329.957 -346.987)" fill="url(#j)"/><rect width="78.623" height="11.885" rx="1.177" transform="translate(78.623 11.885) rotate(180)" fill="url(#j)"/></g></g></g></svg>